<?xml version="1.0" encoding="utf-8"?>
<!-- Designed by Vexels.com - 2018 All Rights Reserved - https://vexels.com/terms-and-conditions/  -->
<svg version="1.1" id="Layer_1" xmlns="http://www.w3.org/2000/svg" xmlns:xlink="http://www.w3.org/1999/xlink" x="0px" y="0px"
	 viewBox="0 0 1200 1200" enable-background="new 0 0 1200 1200" xml:space="preserve">
<g>
	<g>
		<g>
			<path fill="#3C96A5" d="M702.876,733.359c0,0-2.695-10.815-6.054-29.709c-0.714-4.792-1.299-10.156-1.987-16.038
				c-0.671-5.872-1.45-12.335-1.684-19.133c-0.377-6.835-0.573-14.121-0.779-21.879c0.13-7.742,0.519-15.9,0.824-24.506
				c0.319-4.292,0.87-8.648,1.358-13.121c0.553-4.463,0.897-9.062,1.678-13.694c0.773-4.637,1.707-9.329,2.636-14.121
				c0.482-2.394,0.905-4.826,1.456-7.245c0.625-2.408,1.261-4.835,1.896-7.278c1.287-4.897,2.573-9.885,4.152-14.845
				c1.754-4.923,3.526-9.908,5.327-14.946c1.664-5.128,4.095-9.953,6.302-14.968c1.137-2.496,2.28-5.002,3.422-7.521
				c1.217-2.482,2.6-4.86,3.92-7.302c10.433-19.643,23.828-38.388,39.044-54.674c15.157-16.416,31.788-30.773,48.613-43.542
				c16.868-12.749,33.966-24.026,50.571-34.466c16.607-10.493,32.925-20.176,48.44-29.609c15.461-9.502,30.49-18.399,44.307-27.481
				c3.48-2.235,7.028-4.323,10.336-6.602c3.339-2.238,6.586-4.517,9.901-6.611c6.686-4.116,12.648-8.757,18.77-12.78
				c11.965-8.38,22.978-16.274,32.599-23.623c2.448-1.805,4.821-3.549,7.109-5.235c2.241-1.754,4.405-3.451,6.482-5.076
				c4.192-3.248,8.032-6.285,11.616-8.927c6.971-5.507,12.434-9.973,16.325-12.887c3.92-2.922,6.003-4.48,6.003-4.48
				s-1.005,2.548-3.04,7.246c-1.022,2.352-2.288,5.246-3.852,8.609c-1.56,3.363-3.281,7.327-5.523,11.489
				c-2.189,4.213-4.75,8.772-7.529,13.796c-2.691,5.122-6.004,10.269-9.537,15.822c-6.996,11.211-15.637,23.229-25.625,35.886
				c-10.09,12.496-21.583,25.607-34.502,38.372c-12.864,12.904-27.046,25.535-42.021,37.871
				c-15.002,12.288-30.735,24.12-46.607,35.658c-15.885,11.531-31.735,22.759-46.808,34.202
				c-15.105,11.398-29.404,22.975-42.28,35.18c-12.948,12.153-24.274,25.082-34.115,38.813
				c-9.759,13.76-18.612,27.979-25.388,42.971c-0.919,1.837-1.834,3.662-2.743,5.473c-0.845,1.855-1.58,3.764-2.365,5.627
				c-1.56,3.744-3.066,7.458-4.698,11.086c-2.953,7.403-5.39,14.831-8.113,21.901c-2.313,7.244-4.431,14.281-6.685,20.987
				c-1.977,6.797-3.606,13.352-5.458,19.51c-1.962,6.168-3.034,11.984-4.541,17.399c-1.43,5.47-2.736,10.494-3.924,15.03
				C706.002,722.69,702.876,733.359,702.876,733.359z"/>
			<path fill="#3C96A5" d="M734.28,706.273c0,0,1.371,0.307,3.95,0.886c2.56,0.567,6.362,1.169,11.124,1.929
				c4.787,0.677,10.58,1.325,17.195,1.76c6.621,0.387,14.033,0.763,22.094,0.499c8.045-0.183,16.709-0.668,25.774-1.873
				c4.533-0.488,9.166-1.3,13.876-2.049c4.692-1.046,9.505-1.728,14.319-3.026c9.68-2.177,19.479-5.364,29.366-8.726
				c9.803-3.692,19.705-7.637,29.32-12.479c4.826-2.357,9.68-4.644,14.343-7.387c2.365-1.294,4.724-2.586,7.075-3.871
				c2.307-1.395,4.614-2.786,6.908-4.171c2.293-1.391,4.574-2.776,6.846-4.155c2.235-1.472,4.455-2.94,6.666-4.398
				c2.215-1.457,4.418-2.909,6.599-4.347c2.147-1.529,4.271-3.046,6.38-4.551c8.531-5.89,16.445-12.234,24.096-18.094
				c7.421-6.219,14.695-11.83,21.036-17.588c3.261-2.79,6.379-5.461,9.348-8.005c2.912-2.649,5.666-5.16,8.259-7.521
				c2.636-2.326,5.061-4.567,7.406-6.537c2.285-2.039,4.301-4.002,6.177-5.732c3.679-3.523,6.771-6.128,8.803-7.986
				c2.088-1.806,3.205-2.772,3.205-2.772s-0.707,1.348-2.039,3.876c-1.392,2.477-3.316,6.232-6.017,10.8
				c-1.346,2.291-2.787,4.881-4.449,7.617c-1.691,2.715-3.624,5.546-5.646,8.64c-2.068,3.054-4.269,6.308-6.582,9.739
				c-2.437,3.32-5.1,6.714-7.84,10.323c-5.406,7.289-11.937,14.5-18.803,22.238c-7.165,7.372-14.745,15.213-23.303,22.416
				c-2.111,1.831-4.19,3.772-6.406,5.545c-2.241,1.73-4.496,3.476-6.77,5.229c-2.28,1.756-4.574,3.523-6.872,5.301
				c-2.404,1.612-4.822,3.232-7.245,4.864c-2.43,1.62-4.874,3.248-7.321,4.88c-2.535,1.482-5.074,2.968-7.621,4.455
				c-5.056,3.052-10.338,5.692-15.618,8.327c-5.242,2.724-10.779,4.745-16.145,7.096c-2.677,1.201-5.484,2.023-8.217,2.997
				c-2.761,0.91-5.478,1.945-8.244,2.737c-5.556,1.538-11.015,3.242-16.561,4.245c-2.756,0.564-5.491,1.123-8.205,1.68
				c-2.748,0.389-5.471,0.775-8.172,1.154c-10.805,1.417-21.335,1.874-31.27,1.424c-9.932-0.313-19.267-1.61-27.746-3.3
				c-8.501-1.646-16.12-4.004-22.746-6.341c-6.64-2.324-12.213-5.056-16.735-7.312c-4.536-2.248-7.894-4.514-10.186-5.966
				C735.411,707.215,734.28,706.273,734.28,706.273z"/>
			<path fill="#3C96A5" d="M1148.815,136.143c-12.306,21.883-30.308,47.004-57.667,74.78c0.3,5.91,0.671,12.042,0.806,18.462
				c0.515,14.746,0.469,30.752-0.076,47.69c-0.697,16.906-1.808,34.779-4.074,53.097c-1.957,18.403-5.365,37.127-9.198,56.126
				c-4.394,18.772-9.136,37.922-15.678,56.32c-6.08,18.646-13.87,36.488-22.049,53.842c-2.079,4.318-4.437,8.418-6.627,12.622
				c-2.274,4.145-4.366,8.417-6.751,12.424c-2.448,3.969-4.878,7.915-7.288,11.834c-2.463,3.885-4.692,7.956-7.407,11.537
				c-2.617,3.685-5.21,7.342-7.775,10.964c-2.574,3.629-5.063,7.302-7.887,10.56c-2.743,3.36-5.452,6.683-8.135,9.968
				c-2.716,3.248-5.237,6.669-8.14,9.554c-5.659,5.99-11.16,11.821-16.49,17.458c-5.685,5.23-11.175,10.281-16.448,15.134
				c-1.326,1.203-2.613,2.448-3.943,3.587c-1.365,1.082-2.717,2.153-4.053,3.213c-2.678,2.122-5.29,4.196-7.836,6.217
				c-5.154,3.971-9.844,8.127-14.722,11.186c-4.786,3.252-9.27,6.298-13.415,9.111c-4.138,2.848-7.951,5.468-11.584,7.415
				c-14.376,8.298-22.594,13.039-22.594,13.039s8.667-3.698,23.822-10.17c3.859-1.5,7.927-3.637,12.365-5.968
				c4.455-2.313,9.276-4.813,14.428-7.485c5.262-2.489,10.394-6.064,16.034-9.439c2.799-1.733,5.67-3.51,8.609-5.33
				c1.473-0.909,2.968-1.831,4.467-2.765c1.476-0.99,2.91-2.086,4.395-3.145c5.904-4.294,12.055-8.771,18.428-13.404
				c6.115-5.037,12.351-10.412,18.842-15.881c3.327-2.639,6.282-5.827,9.452-8.853c3.146-3.075,6.33-6.187,9.546-9.333
				c3.306-3.06,6.282-6.55,9.368-10.01c3.085-3.47,6.195-6.973,9.341-10.507c3.249-3.444,6.021-7.39,9.036-11.17
				c2.976-3.835,5.979-7.696,8.993-11.58c2.962-3.937,5.638-8.152,8.495-12.266c2.782-4.171,5.744-8.262,8.428-12.58
				c10.589-17.353,20.901-35.518,29.469-54.7c9.049-18.967,16.268-38.869,23.069-58.63c6.224-19.934,11.966-39.823,16.106-59.426
				c4.468-19.549,7.637-38.719,10.25-56.983c2.457-18.283,4.271-35.679,5.348-51.8c0.629-8.061,0.903-15.803,1.304-23.176
				c0.189-7.379,0.534-14.384,0.534-20.986c0.234-13.192-0.046-24.759-0.319-34.329
				C1149.36,146.022,1149.093,140.658,1148.815,136.143z"/>
		</g>
		<g>
			<path fill="#3C96A5" d="M497.121,733.359c0,0,2.701-10.815,6.06-29.709c0.716-4.792,1.303-10.156,1.99-16.038
				c0.662-5.872,1.441-12.335,1.682-19.133c0.377-6.835,0.566-14.121,0.773-21.879c-0.123-7.742-0.521-15.9-0.819-24.506
				c-0.325-4.292-0.877-8.648-1.358-13.121c-0.557-4.463-0.903-9.062-1.682-13.694c-0.772-4.637-1.701-9.329-2.63-14.121
				c-0.48-2.394-0.903-4.826-1.456-7.245c-0.631-2.408-1.26-4.835-1.899-7.278c-1.284-4.897-2.573-9.885-4.157-14.845
				c-1.754-4.923-3.526-9.908-5.321-14.946c-1.661-5.128-4.099-9.953-6.3-14.968c-1.138-2.496-2.281-5.002-3.431-7.521
				c-1.209-2.482-2.599-4.86-3.92-7.302c-10.431-19.643-23.821-38.388-39.037-54.674c-15.157-16.416-31.788-30.773-48.62-43.542
				c-16.868-12.749-33.96-24.026-50.571-34.466c-16.598-10.493-32.925-20.176-48.432-29.609
				c-15.463-9.502-30.489-18.399-44.315-27.481c-3.476-2.235-7.022-4.323-10.329-6.602c-3.34-2.238-6.594-4.517-9.902-6.611
				c-6.683-4.116-12.648-8.757-18.774-12.78c-11.967-8.38-22.971-16.274-32.595-23.623c-2.448-1.805-4.819-3.549-7.106-5.235
				c-2.248-1.754-4.412-3.451-6.491-5.076c-4.183-3.248-8.023-6.285-11.615-8.927c-6.966-5.507-12.436-9.973-16.327-12.887
				c-3.91-2.922-5.998-4.48-5.998-4.48s1.001,2.548,3.041,7.246c1.02,2.352,2.287,5.246,3.846,8.609
				c1.564,3.363,3.287,7.327,5.522,11.489c2.196,4.213,4.757,8.772,7.537,13.796c2.682,5.122,5.995,10.269,9.535,15.822
				c6.99,11.211,15.632,23.229,25.617,35.886c10.095,12.496,21.589,25.607,34.502,38.372c12.87,12.904,27.054,25.535,42.027,37.871
				c15.002,12.288,30.731,24.12,46.603,35.658c15.89,11.531,31.735,22.759,46.815,34.202c15.104,11.398,29.403,22.975,42.28,35.18
				c12.947,12.153,24.271,25.082,34.114,38.813c9.752,13.76,18.605,27.979,25.381,42.971c0.923,1.837,1.838,3.662,2.743,5.473
				c0.844,1.855,1.58,3.764,2.372,5.627c1.553,3.744,3.065,7.458,4.695,11.086c2.958,7.403,5.386,14.831,8.116,21.901
				c2.313,7.244,4.425,14.281,6.686,20.987c1.974,6.797,3.606,13.352,5.454,19.51c1.964,6.168,3.037,11.984,4.543,17.399
				c1.424,5.47,2.736,10.494,3.919,15.03C493.996,722.69,497.121,733.359,497.121,733.359z"/>
			<path fill="#3C96A5" d="M465.723,706.273c0,0-1.376,0.307-3.949,0.886c-2.567,0.567-6.363,1.169-11.123,1.929
				c-4.789,0.677-10.583,1.325-17.203,1.76c-6.621,0.387-14.034,0.763-22.09,0.499c-8.051-0.183-16.711-0.668-25.779-1.873
				c-4.536-0.488-9.16-1.3-13.876-2.049c-4.685-1.046-9.501-1.728-14.314-3.026c-9.684-2.177-19.482-5.364-29.364-8.726
				c-9.804-3.692-19.712-7.637-29.318-12.479c-4.829-2.357-9.687-4.644-14.347-7.387c-2.363-1.294-4.722-2.586-7.073-3.871
				c-2.314-1.395-4.613-2.786-6.905-4.171c-2.297-1.391-4.581-2.776-6.857-4.155c-2.236-1.472-4.457-2.94-6.666-4.398
				c-2.209-1.457-4.412-2.909-6.594-4.347c-2.143-1.529-4.275-3.046-6.38-4.551c-8.529-5.89-16.441-12.234-24.101-18.094
				c-7.413-6.219-14.696-11.83-21.039-17.588c-3.254-2.79-6.373-5.461-9.341-8.005c-2.909-2.649-5.67-5.16-8.263-7.521
				c-2.638-2.326-5.063-4.567-7.408-6.537c-2.279-2.039-4.301-4.002-6.171-5.732c-3.684-3.523-6.77-6.128-8.804-7.986
				c-2.092-1.806-3.203-2.772-3.203-2.772s0.71,1.348,2.04,3.876c1.391,2.477,3.314,6.232,6.018,10.8
				c1.343,2.291,2.778,4.881,4.451,7.617c1.682,2.715,3.624,5.546,5.644,8.64c2.065,3.054,4.262,6.308,6.581,9.739
				c2.437,3.32,5.1,6.714,7.835,10.323c5.412,7.289,11.936,14.5,18.801,22.238c7.166,7.372,14.747,15.213,23.305,22.416
				c2.118,1.831,4.19,3.772,6.404,5.545c2.244,1.73,4.502,3.476,6.777,5.229c2.272,1.756,4.566,3.523,6.874,5.301
				c2.402,1.612,4.813,3.232,7.237,4.864c2.435,1.62,4.878,3.248,7.327,4.88c2.536,1.482,5.076,2.968,7.615,4.455
				c5.054,3.052,10.337,5.692,15.626,8.327c5.242,2.724,10.771,4.745,16.144,7.096c2.677,1.201,5.483,2.023,8.217,2.997
				c2.763,0.91,5.471,1.945,8.247,2.737c5.546,1.538,11.004,3.242,16.552,4.245c2.755,0.564,5.49,1.123,8.211,1.68
				c2.742,0.389,5.464,0.775,8.166,1.154c10.811,1.417,21.336,1.874,31.276,1.424c9.934-0.313,19.26-1.61,27.748-3.3
				c8.49-1.646,16.115-4.004,22.745-6.341c6.64-2.324,12.206-5.056,16.728-7.312c4.533-2.248,7.9-4.514,10.194-5.966
				C464.587,707.215,465.723,706.273,465.723,706.273z"/>
			<path fill="#3C96A5" d="M51.189,136.143c12.304,21.883,30.301,47.004,57.664,74.78c-0.299,5.91-0.668,12.042-0.811,18.462
				c-0.508,14.746-0.462,30.752,0.078,47.69c0.701,16.906,1.805,34.779,4.073,53.097c1.956,18.403,5.364,37.127,9.199,56.126
				c4.399,18.772,9.14,37.922,15.683,56.32c6.074,18.646,13.868,36.488,22.049,53.842c2.079,4.318,4.437,8.418,6.625,12.622
				c2.268,4.145,4.36,8.417,6.751,12.424c2.443,3.969,4.872,7.915,7.29,11.834c2.461,3.885,4.689,7.956,7.405,11.537
				c2.612,3.685,5.204,7.342,7.778,10.964c2.573,3.629,5.053,7.302,7.879,10.56c2.743,3.36,5.458,6.683,8.133,9.968
				c2.724,3.248,5.243,6.669,8.149,9.554c5.657,5.99,11.159,11.821,16.487,17.458c5.678,5.23,11.173,10.281,16.444,15.134
				c1.332,1.203,2.613,2.448,3.942,3.587c1.371,1.082,2.723,2.153,4.057,3.213c2.674,2.122,5.293,4.196,7.839,6.217
				c5.147,3.971,9.843,8.127,14.721,11.186c4.79,3.252,9.266,6.298,13.41,9.111c4.14,2.848,7.951,5.468,11.59,7.415
				c14.378,8.298,22.59,13.039,22.59,13.039s-8.66-3.698-23.824-10.17c-3.854-1.5-7.92-3.637-12.358-5.968
				c-4.463-2.313-9.282-4.813-14.436-7.485c-5.255-2.489-10.394-6.064-16.027-9.439c-2.801-1.733-5.672-3.51-8.615-5.33
				c-1.473-0.909-2.961-1.831-4.47-2.765c-1.473-0.99-2.903-2.086-4.383-3.145c-5.907-4.294-12.066-8.771-18.432-13.404
				c-6.12-5.037-12.356-10.412-18.84-15.881c-3.327-2.639-6.289-5.827-9.459-8.853c-3.145-3.075-6.322-6.187-9.537-9.333
				c-3.309-3.06-6.291-6.55-9.368-10.01c-3.086-3.47-6.206-6.973-9.344-10.507c-3.249-3.444-6.022-7.39-9.042-11.17
				c-2.975-3.835-5.97-7.696-8.986-11.58c-2.964-3.937-5.637-8.152-8.497-12.266c-2.788-4.171-5.748-8.262-8.428-12.58
				c-10.59-17.353-20.906-35.518-29.474-54.7c-9.045-18.967-16.26-38.869-23.065-58.63c-6.23-19.934-11.966-39.823-16.112-59.426
				c-4.462-19.549-7.632-38.719-10.251-56.983c-2.456-18.283-4.259-35.679-5.339-51.8c-0.638-8.061-0.903-15.803-1.307-23.176
				c-0.188-7.379-0.531-14.384-0.54-20.986c-0.226-13.192,0.046-24.759,0.325-34.329C50.644,146.022,50.909,140.658,51.189,136.143z
				"/>
		</g>
	</g>
	<g>
		<path fill="#3C96A5" d="M619.527,496.149c1.549-2.557,2.493-5.256,3.082-8.012c0.694-2.692,0.971-5.468,1.189-8.159l0.131-4.06
			c0.016-1.346-0.131-2.732-0.189-4.067c-0.038-2.653-0.508-5.377-0.863-8.021c-0.221-2.623-1.011-5.324-1.505-7.934
			c-0.454-2.609-1.268-5.245-1.994-7.843c-0.729-2.6-1.369-5.186-2.345-7.768c-0.871-2.587-1.792-5.138-2.583-7.709l-3.037-7.643
			c-1.014-2.538-1.846-5.103-3.066-7.611c-1.121-2.523-2.283-5.022-3.324-7.56l-1.6-3.793l-1.831-3.737
			c-2.534-4.959-4.542-10.074-7.22-14.994l-7.53-14.948h26.274l-7.507,14.958c-2.675,4.919-4.701,10.029-7.208,14.995l-1.836,3.74
			l-1.6,3.789c-1.043,2.539-2.185,5.044-3.316,7.56c-1.215,2.51-2.063,5.069-3.06,7.612l-3.042,7.638
			c-0.792,2.571-1.695,5.129-2.581,7.709c-0.982,2.583-1.606,5.168-2.34,7.765c-0.726,2.597-1.551,5.233-1.998,7.843
			c-0.491,2.607-1.293,5.308-1.506,7.929c-0.358,2.642-0.837,5.367-0.866,8.017c-0.064,1.335-0.212,2.721-0.199,4.067l0.13,4.06
			c0.212,2.691,0.488,5.465,1.18,8.156c0.582,2.759,1.522,5.458,3.069,8.019c-2.759-1.324-4.984-3.591-7.035-5.944
			c-2.042-2.399-3.688-5.113-5.142-7.94c-0.664-1.421-1.339-2.87-1.972-4.347c-0.584-1.477-1.004-2.976-1.513-4.494
			c-1.095-3.044-1.545-6.119-2.193-9.246c-0.716-3.154-0.719-6.222-1.068-9.384c-0.369-3.183-0.179-6.247-0.162-9.38
			c0.006-3.135,0.134-6.278,0.551-9.311c0.339-3.067,0.657-6.158,1.085-9.234c1.226-5.953,2.228-12.106,3.952-17.917
			c0.832-2.915,1.654-5.844,2.573-8.738l1.348-4.36l1.558-4.236c1.021-2.834,2.166-5.617,3.257-8.426
			c1.102-2.805,2.176-5.633,3.452-8.321l7.718-16.188l13.158-27.611l13.115,27.611l7.696,16.197c1.28,2.69,2.356,5.516,3.453,8.322
			c1.108,2.802,2.226,5.598,3.246,8.428l1.563,4.233l1.348,4.36c0.922,2.895,1.721,5.83,2.567,8.742
			c1.727,5.81,2.71,11.965,3.945,17.914c0.436,3.075,0.737,6.169,1.084,9.231c0.425,3.034,0.543,6.174,0.55,9.311
			c0.019,3.129,0.221,6.193-0.159,9.374c-0.348,3.163-0.343,6.229-1.066,9.383c-0.642,3.124-1.087,6.197-2.186,9.243
			c-0.506,1.515-0.92,3.016-1.506,4.494l-1.972,4.346c-1.444,2.821-3.089,5.538-5.126,7.94
			C624.502,492.554,622.278,494.82,619.527,496.149z"/>
	</g>
	<g>
		<path fill="#3C96A5" d="M582.291,529.787c0,0-0.819,28.699-4.538,71.695c-3.671,42.992-10.286,100.29-21.526,157.273
			c-2.765,14.251-5.924,28.46-9.241,42.439c-1.779,6.976-3.541,13.896-5.283,20.732c-1.944,6.806-3.746,13.564-5.743,20.171
			c-4.018,13.212-8.211,25.961-12.742,37.964c-4.493,12.008-9.22,23.298-14.122,33.615c-4.808,10.347-9.953,19.673-14.744,27.896
			c-2.565,4.066-4.972,7.87-7.191,11.388c-2.311,3.497-4.754,6.602-6.813,9.463c-4.005,5.773-8.042,9.96-10.537,12.928
			c-2.574,2.938-3.946,4.502-3.946,4.502l-35.892-37.648c0,0,1.105-1.017,3.185-2.929c2.044-1.978,5.289-4.486,8.919-8.683
			c1.838-2.046,3.995-4.158,6.164-6.745c2.135-2.652,4.445-5.521,6.911-8.589c4.747-6.392,10.051-13.79,15.327-22.431
			c5.344-8.569,10.774-18.256,16.152-28.803c5.408-10.53,10.675-21.979,15.88-33.997c2.597-6.014,5.034-12.242,7.627-18.496
			c2.41-6.349,4.845-12.775,7.305-19.252c4.707-13.06,9.331-26.437,13.587-39.967c17.223-54.09,30.219-109.895,38.678-151.981
			C578.226,558.221,582.291,529.787,582.291,529.787z"/>
		<path fill="#3C96A5" d="M585.233,734.767c0,0,0.228,18.122-0.814,45.376c-1,27.255-3.363,63.631-8.146,100.12
			c-2.395,18.242-5.441,36.505-9.111,53.663c-0.909,4.291-1.834,8.514-2.867,12.642c-0.959,4.138-1.99,8.184-3.085,12.122
			c-1.023,3.943-2.13,7.78-3.288,11.486c-1.079,3.72-2.232,7.307-3.447,10.75c-1.148,3.451-2.294,6.76-3.551,9.902
			c-1.237,3.141-2.28,6.142-3.565,8.938c-1.232,2.811-2.383,5.439-3.451,7.871c-1.215,2.427-2.327,4.657-3.336,6.672
			c-1.92,4.043-3.968,7.185-5.161,9.345c-1.261,2.157-1.933,3.307-1.933,3.307l-41.889-30.84c0,0,0.608-0.708,1.743-2.039
			c1.11-1.385,2.904-3.147,4.91-5.962c1.033-1.365,2.183-2.878,3.428-4.522c1.189-1.76,2.47-3.666,3.845-5.701
			c1.421-1.992,2.741-4.357,4.233-6.745c1.506-2.378,2.985-5.002,4.501-7.773c1.565-2.73,3.13-5.647,4.672-8.741
			c1.597-3.05,3.195-6.258,4.75-9.628c1.619-3.329,3.21-6.809,4.77-10.414c1.619-3.574,3.173-7.292,4.727-11.097
			c6.256-15.195,12.271-31.905,17.721-48.898c10.897-34.004,19.661-69.04,25.47-95.49
			C582.217,752.651,585.233,734.767,585.233,734.767z"/>
		<path fill="#3C96A5" d="M617.67,529.787c0,0,4.064,28.434,12.582,70.544c8.459,42.085,21.456,97.891,38.677,151.981
			c4.256,13.531,8.882,26.907,13.588,39.967c2.46,6.477,4.897,12.903,7.306,19.252c2.59,6.253,5.028,12.482,7.627,18.496
			c5.203,12.018,10.471,23.467,15.878,33.997c5.379,10.547,10.81,20.234,16.152,28.803c5.275,8.641,10.579,16.04,15.327,22.431
			c2.467,3.068,4.776,5.937,6.911,8.589c2.17,2.587,4.327,4.699,6.164,6.745c3.632,4.197,6.877,6.705,8.921,8.683
			c2.076,1.912,3.183,2.929,3.183,2.929l-35.892,37.648c0,0-1.372-1.564-3.945-4.502c-2.496-2.968-6.532-7.155-10.54-12.928
			c-2.059-2.861-4.502-5.966-6.81-9.463c-2.222-3.518-4.627-7.322-7.194-11.388c-4.79-8.223-9.934-17.549-14.744-27.896
			c-4.903-10.316-9.628-21.606-14.122-33.615c-4.53-12.003-8.72-24.752-12.74-37.964c-1.997-6.607-3.799-13.365-5.744-20.171
			c-1.74-6.836-3.504-13.756-5.282-20.732c-3.316-13.979-6.478-28.188-9.243-42.439c-11.24-56.983-17.853-114.281-21.524-157.273
			C618.49,558.486,617.67,529.787,617.67,529.787z"/>
		<path fill="#3C96A5" d="M614.729,734.767c0,0,3.016,17.884,8.874,44.346c5.807,26.451,14.574,61.486,25.474,95.49
			c5.445,16.995,11.463,33.704,17.719,48.898c1.555,3.805,3.109,7.523,4.727,11.097c1.561,3.606,3.151,7.086,4.77,10.414
			c1.557,3.37,3.154,6.578,4.755,9.628c1.538,3.093,3.102,6.011,4.666,8.741c1.522,2.77,2.995,5.395,4.502,7.773
			c1.498,2.388,2.812,4.753,4.235,6.745c1.374,2.034,2.661,3.937,3.848,5.701c1.248,1.643,2.394,3.157,3.43,4.52
			c2.004,2.816,3.8,4.578,4.908,5.962c1.135,1.332,1.739,2.039,1.739,2.039l-41.882,30.843c0,0-0.672-1.15-1.936-3.307
			c-1.19-2.16-3.236-5.303-5.162-9.344c-1.007-2.016-2.121-4.245-3.334-6.672c-1.065-2.432-2.219-5.063-3.451-7.869
			c-1.286-2.801-2.33-5.8-3.57-8.943c-1.253-3.138-2.398-6.448-3.549-9.901c-1.211-3.444-2.369-7.031-3.448-10.75
			c-1.157-3.707-2.261-7.541-3.288-11.486c-1.094-3.939-2.124-7.984-3.085-12.122c-1.034-4.128-1.958-8.351-2.868-12.642
			c-3.668-17.158-6.715-35.422-9.108-53.664c-4.784-36.489-7.151-72.864-8.151-100.12C614.5,752.89,614.729,734.767,614.729,734.767
			z"/>
	</g>
	<polygon fill="#3C96A5" points="599.98,852.052 618.48,1063.857 581.481,1063.857 	"/>
</g>
</svg>
